<svg xmlns="http://www.w3.org/2000/svg" viewBox="0 0 64 64" role="img" aria-label="Fleischkeule">
  <title>Fleischkeule</title>
  <g data-part="shadow" transform="translate(3 4)" fill="none" stroke="#000" stroke-width="10" stroke-linecap="round" stroke-linejoin="round">
    <path d="m36 34 16 16M49 47l6-5M49 47l-5 7"/>
  </g>
  <g data-part="outline" fill="none" stroke="#000" stroke-width="9" stroke-linecap="round" stroke-linejoin="round">
    <path d="m36 34 16 16M49 47l6-5M49 47l-5 7"/>
  </g>
  <g data-part="face" fill="none" stroke="#FFFFFF" stroke-width="4.5" stroke-linecap="round" stroke-linejoin="round">
    <path d="m36 34 16 16M49 47l6-5M49 47l-5 7"/>
  </g>
  <g data-part="shadow" transform="translate(2.3 2.6)" fill="#000" stroke="#000" stroke-width="10"><path d="M8 27C8 15 19 7 31 9c11 2 17 12 12 22-5 11-18 17-27 12-5-3-8-9-8-16Z"/></g>
  <path data-part="outline" d="M8 27C8 15 19 7 31 9c11 2 17 12 12 22-5 11-18 17-27 12-5-3-8-9-8-16Z" fill="#000" stroke="#000" stroke-width="9"/>
  <path data-part="face" d="M8 27C8 15 19 7 31 9c11 2 17 12 12 22-5 11-18 17-27 12-5-3-8-9-8-16Z" fill="#fff" stroke="#FFFFFF" stroke-width="4.5"/>
</svg>
