<svg xmlns="http://www.w3.org/2000/svg" viewBox="0 0 64 64" role="img" aria-label="Geteilte Kapsel">
  <title>Geteilte Kapsel</title>
  <g data-part="shadow" transform="translate(2.3 2.6)" fill="#000" stroke="#000" stroke-width="10" stroke-linecap="round" stroke-linejoin="round"><path d="M11 52c-7-7-7-18 0-25L27 11c7-7 18-7 25 0s7 18 0 25L36 52c-7 7-18 7-25 0Z"/></g>
  <g data-part="outline" fill="#000" stroke="#000" stroke-width="9" stroke-linecap="round" stroke-linejoin="round"><path d="M11 52c-7-7-7-18 0-25L27 11c7-7 18-7 25 0s7 18 0 25L36 52c-7 7-18 7-25 0Z"/></g>
  <g data-part="face" fill="#FFFFFF" stroke="#FFFFFF" stroke-width="4.5" stroke-linecap="round" stroke-linejoin="round"><path d="M11 52c-7-7-7-18 0-25L27 11c7-7 18-7 25 0s7 18 0 25L36 52c-7 7-18 7-25 0Z"/></g>
  <g data-part="details" fill="none" stroke="#000" stroke-width="4" stroke-linecap="round" stroke-linejoin="round"><path d="m19 19 26 26"/></g>
</svg>
